<svg xmlns="http://www.w3.org/2000/svg" width="32" height="32" viewBox="0 0 32 32">
  <defs>
    <linearGradient id="g" x1="0%" y1="0%" x2="100%" y2="100%">
      <stop offset="0%" stop-color="#6366f1"/>
      <stop offset="100%" stop-color="#8b5cf6"/>
    </linearGradient>
  </defs>
  <rect width="32" height="32" rx="8" fill="url(#g)"/>
  <!-- AI sparkle (top-right, prominent) -->
  <path d="M25 1.5 L26.2 3.8 L28.5 5 L26.2 6.2 L25 8.5 L23.8 6.2 L21.5 5 L23.8 3.8 Z" fill="white" opacity="0.9"/>
  <!-- Fulcrum / AI hub -->
  <circle cx="16" cy="9" r="3.5" fill="white"/>
  <!-- Left arm -->
  <line x1="12.8" y1="11.5" x2="6" y2="17" stroke="white" stroke-width="2.5" stroke-linecap="round"/>
  <!-- Right arm -->
  <line x1="19.2" y1="11.5" x2="26" y2="17" stroke="white" stroke-width="2.5" stroke-linecap="round"/>
  <!-- Left chain + plate -->
  <line x1="6" y1="17" x2="6" y2="20" stroke="white" stroke-width="1.5" stroke-linecap="round"/>
  <line x1="3" y1="20" x2="9" y2="20" stroke="white" stroke-width="2.5" stroke-linecap="round"/>
  <!-- Right chain + plate -->
  <line x1="26" y1="17" x2="26" y2="20" stroke="white" stroke-width="1.5" stroke-linecap="round"/>
  <line x1="23" y1="20" x2="29" y2="20" stroke="white" stroke-width="2.5" stroke-linecap="round"/>
  <!-- Pillar -->
  <line x1="16" y1="12.5" x2="16" y2="27" stroke="white" stroke-width="2" stroke-linecap="round" opacity="0.7"/>
  <!-- Base -->
  <line x1="10" y1="27" x2="22" y2="27" stroke="white" stroke-width="2" stroke-linecap="round" opacity="0.7"/>
  <!-- AI orbital dot -->
  <circle cx="10" cy="7" r="1.2" fill="white" opacity="0.55"/>
</svg>
